<svg xmlns="http://www.w3.org/2000/svg" version="1.1" xmlns:xlink="http://www.w3.org/1999/xlink" xmlns:svgjs="http://svgjs.dev/svgjs" width="2000" height="1843" viewBox="0 0 2000 1843"><g transform="matrix(1,0,0,1,-0.3119993254071005,0.7461538461537884)"><svg viewBox="0 0 268 247" data-background-color="#dfd5cb" preserveAspectRatio="xMidYMid meet" height="1843" width="2000" xmlns="http://www.w3.org/2000/svg" xmlns:xlink="http://www.w3.org/1999/xlink"><g id="tight-bounds" transform="matrix(1,0,0,1,0.04180790960455738,-0.09999999999999432)"><svg viewBox="0 0 267.9163841807909 247.2" height="247.2" width="267.9163841807909"><g><svg viewBox="0 0 267.91638418079094 247.20000000000002" height="247.2" width="267.9163841807909"><g><svg viewBox="0 0 267.91638418079094 247.20000000000002" height="247.20000000000002" width="267.91638418079094"><g id="textblocktransform"><svg viewBox="0 0 267.91638418079094 247.20000000000002" height="247.20000000000002" width="267.91638418079094" id="textblock"><g><svg viewBox="0 0 267.91638418079094 247.20000000000002" height="247.20000000000002" width="267.91638418079094"><g transform="matrix(1,0,0,1,0,0)"><svg width="267.91638418079094" viewBox="2.32 -25.93 28.1 25.93" height="247.20000000000002" data-palette-color="#ff5e48"><path d="M2.34-20.12L8.18-25.93 12.5-25.93 12.5-16.77 24.8-16.77 30.42-11.11 30.42-6.05 24.39 0 19.63 0 19.63-9.79 7.96-9.79 2.34-15.19 2.34-20.12ZM13.13-7.42L13.13-4.76 17.92-4.76 17.92 0 6.81-0.02 2.32-5.35 2.32-7.42 13.13-7.42ZM19.63-19.14L19.63-21.17 14.21-21.17 14.21-25.93 25.68-25.93 29.54-22.07 29.54-19.14 19.63-19.14Z" opacity="1" transform="matrix(1,0,0,1,0,0)" fill="#ff5e48" class="wordmark-text-0" data-fill-palette-color="primary" id="text-0"></path></svg></g></svg></g></svg></g></svg></g></svg></g><defs></defs></svg><rect width="267.9163841807909" height="247.2" fill="none" stroke="none" visibility="hidden"></rect></g></svg></g></svg>