<?xml version="1.0" standalone="no"?>
<!DOCTYPE svg PUBLIC "-//W3C//DTD SVG 20010904//EN"
 "http://www.w3.org/TR/2001/REC-SVG-20010904/DTD/svg10.dtd">
<svg version="1.0" xmlns="http://www.w3.org/2000/svg"
 width="920.000000pt" height="920.000000pt" viewBox="0 0 920.000000 920.000000"
 preserveAspectRatio="xMidYMid meet">

<g transform="translate(0.000000,920.000000) scale(0.100000,-0.100000)"
fill="#000000" stroke="none">
<path d="M4475 8611 c-33 -8 -126 -56 -330 -171 -71 -40 -148 -83 -170 -95
-22 -12 -92 -51 -155 -87 -63 -35 -191 -107 -285 -160 -93 -52 -305 -170 -470
-263 -165 -92 -320 -179 -345 -193 -25 -14 -135 -75 -245 -137 -110 -62 -243
-136 -295 -165 -52 -29 -111 -62 -130 -73 -19 -11 -93 -52 -165 -92 -71 -40
-148 -83 -170 -95 -155 -88 -291 -164 -425 -238 -183 -101 -262 -172 -301
-268 l-24 -59 -3 -1880 c-2 -1411 0 -1894 9 -1935 14 -68 37 -113 84 -168 48
-56 86 -81 300 -200 99 -55 250 -139 335 -187 85 -48 232 -130 325 -183 175
-97 262 -146 565 -317 96 -54 247 -139 335 -188 88 -49 178 -100 200 -112 22
-12 96 -54 165 -92 69 -39 143 -81 165 -93 22 -13 96 -54 165 -93 69 -38 199
-112 290 -162 531 -298 561 -314 618 -321 86 -11 201 1 252 27 25 12 121 65
215 117 367 205 487 272 655 367 96 54 229 128 295 165 66 37 138 78 160 90
22 13 110 62 195 110 85 47 234 131 330 185 96 54 227 127 290 163 63 35 133
74 155 87 98 55 303 170 445 250 85 48 236 132 335 187 214 119 252 144 300
200 47 55 70 100 84 168 9 41 11 523 9 1935 l-3 1880 -33 67 c-47 96 -137 176
-293 261 -68 37 -182 100 -254 140 -71 40 -157 88 -190 107 -33 18 -116 65
-185 103 -69 39 -143 80 -165 92 -22 12 -119 66 -215 120 -350 195 -448 250
-615 343 -237 131 -245 136 -337 188 -46 26 -101 57 -123 69 -38 21 -282 157
-520 290 -60 34 -177 99 -260 144 -82 46 -175 98 -205 116 -79 47 -149 65
-249 64 -47 -1 -100 -4 -116 -8z m452 -1346 c470 -57 903 -233 1298 -529 145
-109 390 -351 496 -491 105 -138 193 -275 183 -284 -31 -27 -1158 -661 -1164
-654 -3 4 -29 40 -55 78 -61 87 -208 235 -295 297 -152 108 -317 182 -503 225
-98 23 -133 27 -287 26 -191 0 -264 -11 -424 -64 -199 -66 -368 -171 -521
-324 -154 -154 -258 -321 -324 -520 -53 -162 -64 -234 -64 -425 -1 -154 3
-189 26 -287 62 -266 177 -474 366 -663 189 -188 416 -309 691 -367 118 -25
382 -25 499 0 284 61 503 178 696 372 55 55 124 136 154 180 30 44 56 82 57
83 4 6 1174 -640 1174 -648 0 -4 -29 -53 -65 -109 -383 -604 -1007 -1038
-1703 -1185 -517 -109 -1068 -64 -1552 129 -228 90 -497 247 -690 401 -109 87
-327 305 -414 414 -219 274 -397 621 -495 965 -111 392 -125 868 -36 1277 111
514 354 958 729 1334 385 384 850 634 1376 738 274 54 565 65 847 31z m1403
-2280 l0 -195 190 0 190 0 0 -190 0 -190 -190 0 -190 0 0 -195 0 -195 -195 0
-195 0 0 195 0 195 -190 0 -190 0 0 190 0 190 190 0 190 0 0 195 0 195 195 0
195 0 0 -195z m1340 0 l0 -195 190 0 190 0 0 -190 0 -190 -190 0 -190 0 0
-195 0 -195 -195 0 -195 0 0 195 0 195 -190 0 -190 0 0 190 0 190 190 0 190 0
0 195 0 195 195 0 195 0 0 -195z"/>
</g>
</svg>
